<?xml version="1.0" encoding="utf-8"?>
<!-- Generator: Adobe Illustrator 22.1.0, SVG Export Plug-In . SVG Version: 6.00 Build 0)  -->
<svg version="1.1" id="Layer_1" xmlns="http://www.w3.org/2000/svg" xmlns:xlink="http://www.w3.org/1999/xlink" x="0px" y="0px"
	 viewBox="0 0 426.9 174.7" style="enable-background:new 0 0 426.9 174.7;" xml:space="preserve">
<style type="text/css">
	.st0{fill:none;stroke:#BCBDBE;stroke-width:0.5;stroke-miterlimit:10;}
	.st1{fill:url(#SVGID_1_);}
	.st2{fill:url(#SVGID_2_);}
	.st3{fill:url(#SVGID_3_);}
	.st4{fill:url(#SVGID_4_);}
	.st5{fill:url(#SVGID_5_);}
	.st6{fill:url(#SVGID_6_);}
	.st7{fill:url(#SVGID_7_);}
	.st8{fill:url(#SVGID_8_);}
	.st9{fill:url(#SVGID_9_);}
	.st10{fill:url(#SVGID_10_);}
	.st11{fill:url(#SVGID_11_);}
	.st12{fill:url(#SVGID_12_);}
	.st13{fill:url(#SVGID_13_);}
	.st14{fill:url(#SVGID_14_);}
	.st15{fill:url(#SVGID_15_);}
	.st16{fill:url(#SVGID_16_);}
	.st17{fill:url(#SVGID_17_);}
	.st18{fill:url(#SVGID_18_);}
	.st19{fill:url(#SVGID_19_);}
	.st20{fill:url(#SVGID_20_);}
	.st21{fill:url(#SVGID_21_);}
	.st22{fill:url(#SVGID_22_);}
	.st23{fill:url(#SVGID_23_);}
</style>
<g id="DieLine">
</g>
<g id="Layer_3">
</g>
<g id="Layer_2_1_">
	<polyline class="st0" points="473,-182.1 474,-182 474.9,-181.4 475.7,-180.5 475.8,-179.4 	"/>
</g>
<g>
	<linearGradient id="SVGID_1_" gradientUnits="userSpaceOnUse" x1="11.5902" y1="94.2247" x2="421.8686" y2="94.2247">
		<stop  offset="0" style="stop-color:#DC2597"/>
		<stop  offset="1" style="stop-color:#773DBD"/>
	</linearGradient>
	<path class="st1" d="M222.1,76.4c-9.8,0-17.8,8-17.8,17.8c0,9.8,8,17.8,17.8,17.8c9.8,0,17.8-8,17.8-17.8
		C239.9,84.4,231.9,76.4,222.1,76.4z M222.1,105.7c-6.4,0-11.5-5-11.5-11.5c0-6.4,5-11.5,11.5-11.5c6.4,0,11.5,5.1,11.5,11.5
		C233.6,100.6,228.4,105.7,222.1,105.7z"/>
	<linearGradient id="SVGID_2_" gradientUnits="userSpaceOnUse" x1="11.5902" y1="49.5839" x2="421.8686" y2="49.5839">
		<stop  offset="0" style="stop-color:#DC2597"/>
		<stop  offset="1" style="stop-color:#773DBD"/>
	</linearGradient>
	<path class="st2" d="M181.9,54.2c4.3-1.8,7.2-6,7.2-10.8c0-6.4-5.2-11.7-11.7-11.7h-10.1c-1.5,0-2.8,1.2-2.8,2.8v30
		c0,1.5,1.2,2.8,2.8,2.8h0.8c1.5,0,2.8-1.2,2.8-2.8v-9.5h4.2l6.3,10.9c0.5,0.9,1.4,1.4,2.4,1.4h0.9c1,0,1.9-0.5,2.4-1.4
		c0.5-0.8,0.5-1.9,0-2.8L181.9,54.2z M177.4,48.8h-6.6V38.1h6.6c2.9,0,5.3,2.4,5.3,5.4C182.7,46.4,180.4,48.7,177.4,48.8z"/>
	<linearGradient id="SVGID_3_" gradientUnits="userSpaceOnUse" x1="11.5902" y1="127.391" x2="421.8686" y2="127.391">
		<stop  offset="0" style="stop-color:#DC2597"/>
		<stop  offset="1" style="stop-color:#773DBD"/>
	</linearGradient>
	<path class="st3" d="M296.6,120.5l-2.3,6.6c-0.1,0.2-0.1,0.4-0.2,0.6c-0.1-0.2-0.1-0.4-0.2-0.7l-2.3-6.5h-4.8l-0.2,3.2v-3.2h-11.7
		v3.5h3.9v10.3h3.9V124h3.9l-0.7,10.3h3.8l0.4-6.9l2.1,6.7h3.6l2.3-7l0.4,7.2h3.9l-1.1-13.7H296.6z"/>
	<linearGradient id="SVGID_4_" gradientUnits="userSpaceOnUse" x1="233.8734" y1="128.522" x2="291.2473" y2="128.522">
		<stop  offset="0" style="stop-color:#DC2597"/>
		<stop  offset="1" style="stop-color:#773DBD"/>
	</linearGradient>
	<path class="st4" d="M262.6,128.5C262.6,128.5,262.6,128.5,262.6,128.5L262.6,128.5L262.6,128.5z"/>
	<linearGradient id="SVGID_5_" gradientUnits="userSpaceOnUse" x1="214.3684" y1="144.6759" x2="271.7423" y2="144.6759">
		<stop  offset="0" style="stop-color:#DC2597"/>
		<stop  offset="1" style="stop-color:#773DBD"/>
	</linearGradient>
	<polygon class="st5" points="243.1,144.7 243.1,144.7 243.1,144.7 	"/>
	<linearGradient id="SVGID_6_" gradientUnits="userSpaceOnUse" x1="11.5902" y1="134.3766" x2="421.8686" y2="134.3766">
		<stop  offset="0" style="stop-color:#DC2597"/>
		<stop  offset="1" style="stop-color:#773DBD"/>
	</linearGradient>
	<path class="st6" d="M180.1,115.3l-1-0.7l-1,0.7c-0.6,0.4-14.9,10.4-14.9,23c0,8.8,7.1,15.9,15.9,15.9c8.8,0,15.9-7.1,15.9-15.9
		C194.9,126.3,180.7,115.8,180.1,115.3z M179,147.7c-5.2,0-9.4-4.2-9.4-9.4c0-6.3,5.9-12.4,9.4-15.4c4.8,4.3,9.5,10.3,9.5,15.4
		C188.4,143.4,184.2,147.7,179,147.7z"/>
	<linearGradient id="SVGID_7_" gradientUnits="userSpaceOnUse" x1="11.5902" y1="94.225" x2="421.8686" y2="94.225">
		<stop  offset="0" style="stop-color:#DC2597"/>
		<stop  offset="1" style="stop-color:#773DBD"/>
	</linearGradient>
	<path class="st7" d="M337.6,80v-0.8c0-1.5-1.2-2.8-2.8-2.8h-23.7c-1.5,0-2.8,1.2-2.8,2.8V80c0,1.5,1.2,2.8,2.8,2.8h8.7v26.5
		c0,1.5,1.2,2.8,2.8,2.8h0.8c1.5,0,2.8-1.2,2.8-2.8V82.8h8.7C336.3,82.8,337.6,81.5,337.6,80z"/>
	<linearGradient id="SVGID_8_" gradientUnits="userSpaceOnUse" x1="11.5902" y1="94.225" x2="421.8686" y2="94.225">
		<stop  offset="0" style="stop-color:#DC2597"/>
		<stop  offset="1" style="stop-color:#773DBD"/>
	</linearGradient>
	<path class="st8" d="M268.6,76.4h-0.8c-1.5,0-2.8,1.2-2.8,2.8v18.2c0,4.5-3.8,8.2-8.3,8.2c-4.6,0-8.3-3.7-8.3-8.2V79.2
		c0-1.5-1.2-2.8-2.8-2.8h-0.8c-1.5,0-2.8,1.2-2.8,2.8v18.2c0,8.1,6.6,14.6,14.6,14.6c8.1,0,14.7-6.6,14.7-14.6V79.2
		C271.4,77.7,270.1,76.4,268.6,76.4z"/>
	<linearGradient id="SVGID_9_" gradientUnits="userSpaceOnUse" x1="11.5902" y1="49.5838" x2="421.8686" y2="49.5838">
		<stop  offset="0" style="stop-color:#DC2597"/>
		<stop  offset="1" style="stop-color:#773DBD"/>
	</linearGradient>
	<path class="st9" d="M317.9,33.2c-0.5-0.9-1.4-1.4-2.4-1.4h-1c-1,0-1.9,0.5-2.4,1.4l-8.1,14l-8.1-14c-0.5-0.9-1.4-1.4-2.4-1.4h-1
		c-1,0-1.9,0.5-2.4,1.4c-0.5,0.9-0.5,1.9,0,2.8l10.7,18.3v10.3c0,1.5,1.2,2.8,2.8,2.8h0.8c1.5,0,2.8-1.2,2.8-2.8V54.3L317.8,36
		C318.3,35.1,318.4,34.1,317.9,33.2z"/>
	<linearGradient id="SVGID_10_" gradientUnits="userSpaceOnUse" x1="11.5902" y1="94.225" x2="421.8686" y2="94.225">
		<stop  offset="0" style="stop-color:#DC2597"/>
		<stop  offset="1" style="stop-color:#773DBD"/>
	</linearGradient>
	<path class="st10" d="M413.4,76.4h-0.8c-1.5,0-2.8,1.2-2.8,2.8v21.3l-18.2-23c-0.5-0.7-1.3-1.1-2.2-1.1h-1.3
		c-1.5,0-2.8,1.2-2.8,2.8v30c0,1.5,1.2,2.8,2.8,2.8h0.8c1.5,0,2.8-1.2,2.8-2.8V88l18.3,23c0.5,0.7,1.3,1.1,2.2,1.1h1.2
		c1.5,0,2.8-1.2,2.8-2.8v-30C416.2,77.7,415,76.4,413.4,76.4z"/>
	<linearGradient id="SVGID_11_" gradientUnits="userSpaceOnUse" x1="11.5902" y1="94.225" x2="421.8686" y2="94.225">
		<stop  offset="0" style="stop-color:#DC2597"/>
		<stop  offset="1" style="stop-color:#773DBD"/>
	</linearGradient>
	<path class="st11" d="M303.3,76.4h-0.8c-1.5,0-2.8,1.2-2.8,2.8v21.3l-18.2-23c-0.5-0.7-1.3-1.1-2.2-1.1H278c-1.5,0-2.8,1.2-2.8,2.8
		v30c0,1.5,1.2,2.8,2.8,2.8h0.8c1.5,0,2.8-1.2,2.8-2.8V88l18.3,23c0.5,0.7,1.3,1.1,2.2,1.1h1.2c1.5,0,2.8-1.2,2.8-2.8v-30
		C306.1,77.7,304.9,76.4,303.3,76.4z"/>
	<linearGradient id="SVGID_12_" gradientUnits="userSpaceOnUse" x1="11.5902" y1="137.1295" x2="421.8686" y2="137.1295">
		<stop  offset="0" style="stop-color:#DC2597"/>
		<stop  offset="1" style="stop-color:#773DBD"/>
	</linearGradient>
	<path class="st12" d="M263.3,136.6c-1.3-0.9-3-1.7-5.2-2.2l-4.2-1c-3.4-0.8-4.7-1.3-5.2-1.6c-0.9-0.5-1.2-1.2-1.2-2.3
		c0-1.1,0.4-2,1.2-2.8c0.8-0.8,2.3-1.2,4.3-1.2c2.5,0,4.3,0.7,5.3,1.9c0.3,0.5,0.6,1.1,0.8,1.9c0.4,1.5,1.7,2.5,3.2,2.5
		c1,0,1.9-0.4,2.5-1.2c0.6-0.8,0.9-1.8,0.7-2.7c-0.5-2.6-1.7-4.6-3.6-6c-2.4-1.7-5.4-2.6-8.8-2.6c-3.8,0-6.8,1-8.9,3
		c-2.1,2-3.2,4.7-3.2,7.8c0,3,1.2,5.3,3.4,6.9c1.3,0.8,3.2,1.6,6.1,2.2l4.1,1c2.1,0.5,3.6,1.1,4.5,1.6c0.3,0.2,1,0.7,1,2.6
		c0,1.2-0.3,2.6-2.8,3.5c-1.1,0.4-2.4,0.6-3.8,0.6c-3,0-5-0.8-6.1-2.5c-0.4-0.6-0.7-1.4-0.8-2.2c-0.3-1.5-1.6-2.7-3.2-2.7
		c-1,0-1.9,0.4-2.5,1.1c-0.6,0.7-0.9,1.7-0.7,2.6c0.4,2.6,1.5,4.7,3.4,6.4c2.4,2.2,5.6,3.3,9.7,3.3c3.5,0,6.6-0.8,9.2-2.4
		c2.8-1.7,4.3-4.6,4.3-8.5C266.7,140.8,265.6,138.3,263.3,136.6z"/>
	<linearGradient id="SVGID_13_" gradientUnits="userSpaceOnUse" x1="11.5902" y1="49.5838" x2="421.8686" y2="49.5838">
		<stop  offset="0" style="stop-color:#DC2597"/>
		<stop  offset="1" style="stop-color:#773DBD"/>
	</linearGradient>
	<path class="st13" d="M266.1,67.4h0.8c1.5,0,2.8-1.2,2.8-2.8V54l1.1-1.1l13.7,13.7c0.5,0.5,1.2,0.8,2,0.8h1.2
		c1.1,0,2.1-0.7,2.6-1.7c0.4-1.1,0.2-2.2-0.6-3l-14.3-14.3l11.8-11.8c0.8-0.8,1-2,0.6-3c-0.4-1-1.4-1.7-2.6-1.7H284
		c-0.7,0-1.5,0.3-2,0.8L269.6,45V34.6c0-1.5-1.2-2.8-2.8-2.8h-0.8c-1.5,0-2.8,1.2-2.8,2.8v30C263.3,66.1,264.5,67.4,266.1,67.4z"/>
	<linearGradient id="SVGID_14_" gradientUnits="userSpaceOnUse" x1="11.5902" y1="94.2247" x2="421.8686" y2="94.2247">
		<stop  offset="0" style="stop-color:#DC2597"/>
		<stop  offset="1" style="stop-color:#773DBD"/>
	</linearGradient>
	<path class="st14" d="M370,108.1l-14-30v0c-0.5-1-1.5-1.6-2.5-1.6h-0.9c-1.1,0-2.1,0.6-2.5,1.6l-14,30c-0.4,0.8-0.4,1.9,0.2,2.7
		c0.5,0.8,1.4,1.3,2.3,1.3h0.9c1.1,0,2.1-0.6,2.5-1.6l3.7-8h14.6l3.7,8c0.5,1,1.4,1.6,2.5,1.6h0.9c1,0,1.8-0.5,2.3-1.3
		C370.3,109.9,370.4,108.9,370,108.1z M348.7,96l4.3-9.3l4.3,9.3H348.7z"/>
	<linearGradient id="SVGID_15_" gradientUnits="userSpaceOnUse" x1="11.5902" y1="94.225" x2="421.8686" y2="94.225">
		<stop  offset="0" style="stop-color:#DC2597"/>
		<stop  offset="1" style="stop-color:#773DBD"/>
	</linearGradient>
	<path class="st15" d="M201.8,109.2v-30c0-1.5-1.2-2.8-2.8-2.8h-1.2c-0.7,0-1.4,0.3-2,0.8L183.1,90l-12.7-12.7
		c-0.5-0.5-1.2-0.8-2-0.8h-1.2c-1.5,0-2.8,1.2-2.8,2.8v30c0,1.5,1.2,2.8,2.8,2.8h0.8c1.5,0,2.8-1.2,2.8-2.8V86.7l10.3,10.3
		c0.5,0.5,1.2,0.8,2,0.8c0,0,0,0,0,0c0.7,0,1.4-0.3,2-0.8l10.3-10.3v22.6c0,1.5,1.2,2.8,2.8,2.8h0.8
		C200.5,112,201.8,110.8,201.8,109.2z"/>
	<linearGradient id="SVGID_16_" gradientUnits="userSpaceOnUse" x1="11.5902" y1="135.7321" x2="421.8686" y2="135.7321">
		<stop  offset="0" style="stop-color:#DC2597"/>
		<stop  offset="1" style="stop-color:#773DBD"/>
	</linearGradient>
	<path class="st16" d="M233.5,147.2h-15.2v-26.5c0-1.5-1.2-2.8-2.8-2.8h-0.8c-1.5,0-2.8,1.2-2.8,2.8v30c0,1.5,1.2,2.8,2.8,2.8h18.7
		c1.5,0,2.8-1.2,2.8-2.8V150C236.3,148.5,235,147.2,233.5,147.2z"/>
	<linearGradient id="SVGID_17_" gradientUnits="userSpaceOnUse" x1="11.5902" y1="49.5839" x2="421.8686" y2="49.5839">
		<stop  offset="0" style="stop-color:#DC2597"/>
		<stop  offset="1" style="stop-color:#773DBD"/>
	</linearGradient>
	<path class="st17" d="M208.4,31.8c-9.8,0-17.8,8-17.8,17.8s8,17.8,17.8,17.8c9.8,0,17.8-8,17.8-17.8S218.3,31.8,208.4,31.8z
		 M208.4,61.1c-6.4,0-11.5-5-11.5-11.5s5-11.5,11.5-11.5c6.4,0,11.5,5.1,11.5,11.5C219.9,55.9,214.8,61.1,208.4,61.1z"/>
	<linearGradient id="SVGID_18_" gradientUnits="userSpaceOnUse" x1="11.5902" y1="135.7321" x2="421.8686" y2="135.7321">
		<stop  offset="0" style="stop-color:#DC2597"/>
		<stop  offset="1" style="stop-color:#773DBD"/>
	</linearGradient>
	<path class="st18" d="M202.8,117.9h-0.8c-1.5,0-2.8,1.2-2.8,2.8v30c0,1.5,1.2,2.8,2.8,2.8h0.8c1.5,0,2.8-1.2,2.8-2.8v-30
		C205.6,119.2,204.4,117.9,202.8,117.9z"/>
	<linearGradient id="SVGID_19_" gradientUnits="userSpaceOnUse" x1="11.5902" y1="49.5838" x2="421.8686" y2="49.5838">
		<stop  offset="0" style="stop-color:#DC2597"/>
		<stop  offset="1" style="stop-color:#773DBD"/>
	</linearGradient>
	<path class="st19" d="M246,67.4c4.8,0,9.3-1.9,12.6-5.2c1.1-1.1,1.1-2.8,0-3.9l-0.5-0.6c-0.5-0.6-1.2-0.9-2-0.9
		c-0.7,0-1.5,0.3-2,0.8c-2.1,2.2-5.1,3.4-8.1,3.4c-6.3,0-11.5-5.1-11.5-11.5c0-6.3,5.1-11.5,11.5-11.5c3,0,5.9,1.2,8.1,3.3
		c1.1,1.1,2.8,1.1,3.8,0.1l0.6-0.5c0.5-0.5,0.9-1.2,0.9-2c0-0.8-0.3-1.5-0.8-2c-3.4-3.3-7.8-5.1-12.5-5.1c-9.8,0-17.8,8-17.8,17.8
		S236.2,67.4,246,67.4z"/>
	<linearGradient id="SVGID_20_" gradientUnits="userSpaceOnUse" x1="11.5902" y1="94.225" x2="421.8686" y2="94.225">
		<stop  offset="0" style="stop-color:#DC2597"/>
		<stop  offset="1" style="stop-color:#773DBD"/>
	</linearGradient>
	<path class="st20" d="M376.2,76.4h-0.8c-1.5,0-2.8,1.2-2.8,2.8v30c0,1.5,1.2,2.8,2.8,2.8h0.8c1.5,0,2.8-1.2,2.8-2.8v-30
		C379,77.7,377.7,76.4,376.2,76.4z"/>
	<linearGradient id="SVGID_21_" gradientUnits="userSpaceOnUse" x1="11.5902" y1="136.5974" x2="421.8686" y2="136.5974">
		<stop  offset="0" style="stop-color:#DC2597"/>
		<stop  offset="1" style="stop-color:#773DBD"/>
	</linearGradient>
	<path class="st21" d="M262.6,128.5L262.6,128.5L262.6,128.5C262.6,128.5,262.6,128.5,262.6,128.5z M243.1,144.7L243.1,144.7
		L243.1,144.7L243.1,144.7z"/>
	<linearGradient id="SVGID_22_" gradientUnits="userSpaceOnUse" x1="11.5902" y1="136.5974" x2="421.8686" y2="136.5974">
		<stop  offset="0" style="stop-color:#DC2597"/>
		<stop  offset="1" style="stop-color:#773DBD"/>
	</linearGradient>
	<path class="st22" d="M262.6,128.5L262.6,128.5L262.6,128.5C262.6,128.5,262.6,128.5,262.6,128.5z M243.1,144.7L243.1,144.7
		L243.1,144.7L243.1,144.7z"/>
	<linearGradient id="SVGID_23_" gradientUnits="userSpaceOnUse" x1="11.5902" y1="90.1368" x2="421.8686" y2="90.1368">
		<stop  offset="0" style="stop-color:#DC2597"/>
		<stop  offset="1" style="stop-color:#773DBD"/>
	</linearGradient>
	<path class="st23" d="M143,81.8c-0.6-0.1-1.1,0.2-1.3,0.8l0,0c-1.1,4.7-2.5,9.1-4.5,13.2l-0.7,1.5c-0.3,0.5-0.5,1-0.8,1.5
		c-0.3,0.5-0.5,1-0.8,1.5c-0.3,0.5-0.6,1-0.9,1.4c-1.2,1.9-2.5,3.7-3.8,5.3c-5.5,6.7-12.4,12-19.8,15.4c-1.9,0.8-3.8,1.6-5.7,2.2
		c-1.9,0.5-3.9,1.1-5.8,1.4c-2,0.3-3.9,0.6-5.9,0.6c-0.5,0-1,0-1.5,0c-0.5,0-1,0-1.5,0l-1.5-0.1l-1.5-0.1c-3.9-0.4-7.5-1.2-10.6-2.5
		c-3.1-1.3-5.7-3.2-7.8-5.7c-1-1.3-2-2.7-2.7-4.2c-0.3-0.8-0.7-1.6-0.9-2.4c-0.1-0.4-0.2-0.8-0.3-1.2c-0.1-0.4-0.1-0.8-0.2-1.3
		c-0.4-3.8,0-7.2,1.9-10.4c1.9-3.2,5.5-5.9,9.4-8.1c4-2.2,8.4-3.8,13-5.3l1.8-0.6c0.6-0.2,1.2-0.4,1.8-0.6c1.2-0.4,2.4-0.9,3.6-1.5
		c2.3-1.1,4.6-2.3,6.8-3.7c4.4-2.8,8.3-6.4,11.6-10.6c1.7-2.1,3.1-4.4,4.4-7c0.6-1.3,1.2-2.6,1.6-4.1c0.1-0.4,0.2-0.7,0.3-1.1
		c0.1-0.4,0.2-0.8,0.2-1.2c0.1-0.4,0.1-0.8,0.2-1.3l0-0.3l0-0.3l0-0.5c0.4-5.8-0.9-11.9-3.8-17.3c-1.5-2.7-3.3-5.2-5.5-7.4
		c-2.2-2.2-4.6-4.1-7.3-5.6c-5.3-3.1-11.5-4.8-17.5-5c-2.9-0.2-5.7-0.1-8.4,0.2c-1.4,0.1-2.7,0.3-4.2,0.5c-0.4,0.1-0.7,0.1-1.1,0.2
		l-1,0.2c-0.7,0.1-1.4,0.2-2.1,0.4c-2.8,0.6-5.5,1.4-8.2,2.4c-2.7,1-5.3,2.1-7.8,3.4c-2.5,1.3-4.9,2.8-7.2,4.4
		c-2.3,1.6-4.5,3.3-6.6,5.2c-2.1,1.9-4.1,3.8-6,5.9c-1.9,2.1-3.6,4.3-5.2,6.6c-6.4,9.3-10.6,20.3-11.4,31.8
		c-0.1,0.7-0.1,1.4-0.1,2.2c0,0.7-0.1,1.4,0,2.2l0,2.2l0.1,2c0.2,2.7,0.4,5.3,0.8,8c0.7,5.3,1.9,10.6,3.6,15.7
		c1.7,5.1,4,10.1,6.8,14.7c2.8,4.6,6.1,9,9.7,12.8c3.7,3.9,7.7,7.2,12,10.2c2.2,1.5,4.4,2.8,6.6,4c2.3,1.2,4.5,2.4,6.9,3.4
		c9.3,4.1,19.1,6.5,28.9,7.4c0.4,0,0.9-0.2,1-0.6c0.2-0.5,0-1.1-0.5-1.4l0,0c-4.4-1.9-8.8-4-12.9-6.2c-4.1-2.3-8.1-4.7-11.8-7.4
		c-7.5-5.4-14-11.6-18.9-18.7c-5-7.1-8.3-15-10.1-23.2c-0.9-4.1-1.4-8.3-1.6-12.6c-0.1-2.1-0.1-4.3-0.1-6.4l0.1-1.6l0.1-1.4
		c0-0.5,0.1-1,0.2-1.4c0.1-0.5,0.1-1,0.2-1.4c1.2-7.6,4.3-15,8.8-21.6c0.5-0.8,1.1-1.6,1.7-2.4c0.6-0.8,1.2-1.6,1.9-2.3
		c1.3-1.5,2.6-3,4.1-4.4c2.9-2.8,6-5.3,9.4-7.4c1.7-1,3.4-2,5.2-2.8c1.8-0.8,3.6-1.5,5.5-2.1c0.5-0.2,1-0.3,1.4-0.4l0.7-0.2
		c0.2-0.1,0.4-0.1,0.6-0.2c0.9-0.2,2-0.4,3-0.6c2-0.3,4.1-0.6,6-0.7c1.8-0.1,3.5,0,5.3,0.2c0.9,0.1,1.7,0.3,2.6,0.5
		c0.8,0.2,1.7,0.5,2.5,0.8c1.6,0.6,3.2,1.4,4.6,2.4c1.5,1,2.8,2.1,3.9,3.5c2.3,2.7,4,6.1,4.5,10l0.1,0.7c0,0.2,0.1,0.3,0.1,0.5
		c0,0.2,0,0.4,0,0.6c0,0.2,0,0.4,0,0.6c0,0.9-0.2,1.8-0.4,2.8c-0.2,1-0.6,1.9-0.9,2.9c-0.4,1-0.8,1.9-1.3,2.9c-2,3.8-5,7.1-8.5,9.8
		c-1.8,1.3-3.7,2.5-5.7,3.5c-1,0.5-2,0.9-3.1,1.3c-0.5,0.2-1,0.4-1.6,0.6L87,79.5c-4.7,1.4-9.4,2.7-14.2,4.5c-2.4,0.9-4.8,2-7.2,3.3
		c-2.4,1.3-4.7,3-6.8,5.1c-1,1.1-2,2.2-2.9,3.5c-0.9,1.3-1.6,2.6-2.3,4c-1.3,2.8-2,5.8-2.4,8.7c-0.1,0.7-0.2,1.4-0.2,2.3
		c0,0.8,0,1.6,0,2.4c0.1,1.6,0.2,3.2,0.5,4.7c0.6,3.1,1.7,6.1,3.3,8.9c0.8,1.4,1.7,2.7,2.6,4c1,1.2,2.1,2.5,3.2,3.6
		c2.3,2.3,4.9,4.1,7.7,5.5c5.6,2.9,11.5,4.2,17.2,4.6l2.1,0.1l2.1,0c0.7,0,1.4-0.1,2.1-0.1c0.7,0,1.4-0.1,2.1-0.1l2.1-0.2l2.1-0.3
		c0.7-0.1,1.4-0.3,2.1-0.4c0.7-0.2,1.4-0.3,2.1-0.5c2.7-0.7,5.4-1.6,8-2.7c2.6-1.1,5.1-2.4,7.4-3.8c9.5-5.8,17-14.1,21.7-23.8
		c4.7-9.6,6.2-20.5,4.1-30.3C143.7,82.2,143.4,81.9,143,81.8z"/>
</g>
</svg>
